<mxfile host="app.diagrams.net" modified="2023-04-08T14:21:24.714Z" agent="Mozilla/5.0 (Windows NT 10.0; Win64; x64) AppleWebKit/537.36 (KHTML, like Gecko) Chrome/110.0.0.0 Safari/537.36 OPR/96.0.0.0" etag="IGwvMbhTs1BKhT6PLVDX" version="21.1.5" type="github" pages="4">
  <diagram name="Page-1" id="paGQzFl_TgacfaXUngNB">
    <mxGraphModel dx="1393" dy="835" grid="1" gridSize="10" guides="1" tooltips="1" connect="1" arrows="1" fold="1" page="1" pageScale="1" pageWidth="850" pageHeight="1100" math="0" shadow="0">
      <root>
        <mxCell id="0" />
        <mxCell id="1" parent="0" />
        <UserObject label="Client(C#)" link="data:page/id,paGQzFl_TgacfaXUngNB" id="jNIMLHArzXCmRMpbCymq-1">
          <mxCell style="rounded=0;whiteSpace=wrap;html=1;labelBackgroundColor=none;movable=1;resizable=1;rotatable=1;deletable=1;editable=1;locked=0;connectable=1;" parent="1" vertex="1">
            <mxGeometry x="60" y="340" width="120" height="60" as="geometry" />
          </mxCell>
        </UserObject>
        <UserObject label="Server(C#)" link="data:page/id,DWnL6w5wL1dawth7Rbg-" id="jNIMLHArzXCmRMpbCymq-2">
          <mxCell style="rounded=0;whiteSpace=wrap;html=1;movable=0;resizable=0;rotatable=0;deletable=0;editable=0;locked=1;connectable=0;" parent="1" vertex="1">
            <mxGeometry x="340" y="240" width="120" height="60" as="geometry" />
          </mxCell>
        </UserObject>
        <mxCell id="jNIMLHArzXCmRMpbCymq-7" value="" style="endArrow=classic;startArrow=classic;html=1;rounded=0;entryX=0;entryY=0.5;entryDx=0;entryDy=0;exitX=1;exitY=0.5;exitDx=0;exitDy=0;movable=0;resizable=0;rotatable=0;deletable=0;editable=0;locked=1;connectable=0;" parent="1" source="jNIMLHArzXCmRMpbCymq-1" target="jNIMLHArzXCmRMpbCymq-2" edge="1">
          <mxGeometry width="50" height="50" relative="1" as="geometry">
            <mxPoint x="230" y="300" as="sourcePoint" />
            <mxPoint x="280" y="250" as="targetPoint" />
            <Array as="points" />
          </mxGeometry>
        </mxCell>
        <mxCell id="jNIMLHArzXCmRMpbCymq-8" value="Kết nối" style="text;strokeColor=none;fillColor=none;html=1;fontSize=18;fontStyle=1;verticalAlign=middle;align=center;movable=0;resizable=0;rotatable=0;deletable=0;editable=0;locked=1;connectable=0;" parent="1" vertex="1">
          <mxGeometry x="220" y="330" width="100" height="40" as="geometry" />
        </mxCell>
        <UserObject label="Cơ sở dữ liệu(MySQL)" link="data:page/id,wb5qWrqEcB_lKVCGaq1q" id="jNIMLHArzXCmRMpbCymq-9">
          <mxCell style="rounded=0;whiteSpace=wrap;html=1;movable=0;resizable=0;rotatable=0;deletable=0;editable=0;locked=1;connectable=0;" parent="1" vertex="1">
            <mxGeometry x="600" y="240" width="120" height="60" as="geometry" />
          </mxCell>
        </UserObject>
        <mxCell id="jNIMLHArzXCmRMpbCymq-11" value="" style="endArrow=classic;startArrow=classic;html=1;rounded=0;entryX=0;entryY=0.5;entryDx=0;entryDy=0;exitX=1;exitY=0.5;exitDx=0;exitDy=0;movable=0;resizable=0;rotatable=0;deletable=0;editable=0;locked=1;connectable=0;" parent="1" target="jNIMLHArzXCmRMpbCymq-9" edge="1">
          <mxGeometry width="50" height="50" relative="1" as="geometry">
            <mxPoint x="460" y="269" as="sourcePoint" />
            <mxPoint x="640" y="269" as="targetPoint" />
            <Array as="points" />
          </mxGeometry>
        </mxCell>
        <UserObject label="Client(C#)" link="data:page/id,paGQzFl_TgacfaXUngNB" id="3XTFY3291tvihMN4Icnf-1">
          <mxCell style="rounded=0;whiteSpace=wrap;html=1;labelBackgroundColor=none;movable=1;resizable=1;rotatable=1;deletable=1;editable=1;locked=0;connectable=1;" parent="1" vertex="1">
            <mxGeometry x="60" y="160" width="120" height="60" as="geometry" />
          </mxCell>
        </UserObject>
        <mxCell id="3XTFY3291tvihMN4Icnf-5" value="" style="endArrow=classic;startArrow=classic;html=1;rounded=0;exitX=1;exitY=0.5;exitDx=0;exitDy=0;movable=0;resizable=0;rotatable=0;deletable=0;editable=0;locked=1;connectable=0;" parent="1" edge="1">
          <mxGeometry width="50" height="50" relative="1" as="geometry">
            <mxPoint x="180" y="190" as="sourcePoint" />
            <mxPoint x="340" y="270" as="targetPoint" />
            <Array as="points" />
          </mxGeometry>
        </mxCell>
        <mxCell id="3XTFY3291tvihMN4Icnf-6" value="Kết nối" style="text;strokeColor=none;fillColor=none;html=1;fontSize=18;fontStyle=1;verticalAlign=middle;align=center;movable=0;resizable=0;rotatable=0;deletable=0;editable=0;locked=1;connectable=0;" parent="1" vertex="1">
          <mxGeometry x="230" y="190" width="100" height="40" as="geometry" />
        </mxCell>
        <mxCell id="c_d7yF9qTX3Vp9UUsDTt-7" value="" style="edgeStyle=orthogonalEdgeStyle;rounded=0;orthogonalLoop=1;jettySize=auto;html=1;movable=0;resizable=0;rotatable=0;deletable=0;editable=0;locked=1;connectable=0;" parent="1" source="c_d7yF9qTX3Vp9UUsDTt-1" target="jNIMLHArzXCmRMpbCymq-2" edge="1">
          <mxGeometry relative="1" as="geometry" />
        </mxCell>
        <UserObject label="Cờ vua" link="data:page/id,D5HoMuj3uosn149JqA8Q" id="c_d7yF9qTX3Vp9UUsDTt-1">
          <mxCell style="rounded=1;whiteSpace=wrap;html=1;movable=0;resizable=0;rotatable=0;deletable=0;editable=0;locked=1;connectable=0;" parent="1" vertex="1">
            <mxGeometry x="340" y="100" width="120" height="60" as="geometry" />
          </mxCell>
        </UserObject>
      </root>
    </mxGraphModel>
  </diagram>
  <diagram id="DWnL6w5wL1dawth7Rbg-" name="Server">
    <mxGraphModel dx="1393" dy="835" grid="1" gridSize="10" guides="1" tooltips="1" connect="1" arrows="1" fold="1" page="1" pageScale="1" pageWidth="3300" pageHeight="4681" math="0" shadow="0">
      <root>
        <mxCell id="0" />
        <mxCell id="1" parent="0" />
        <mxCell id="LmWn8QrTKek6M5Rs8ROm-2" value="" style="edgeStyle=orthogonalEdgeStyle;rounded=0;orthogonalLoop=1;jettySize=auto;html=1;" parent="1" source="YhAX1nRg8OLiJ6K9KQkO-1" target="LmWn8QrTKek6M5Rs8ROm-1" edge="1">
          <mxGeometry relative="1" as="geometry" />
        </mxCell>
        <mxCell id="LmWn8QrTKek6M5Rs8ROm-6" value="" style="edgeStyle=orthogonalEdgeStyle;rounded=0;orthogonalLoop=1;jettySize=auto;html=1;" parent="1" source="YhAX1nRg8OLiJ6K9KQkO-1" target="LmWn8QrTKek6M5Rs8ROm-3" edge="1">
          <mxGeometry relative="1" as="geometry" />
        </mxCell>
        <mxCell id="BTQIR7O9Z3_4OCxKt4MY-1" style="edgeStyle=orthogonalEdgeStyle;rounded=0;orthogonalLoop=1;jettySize=auto;html=1;exitX=0.5;exitY=1;exitDx=0;exitDy=0;entryX=0.5;entryY=0;entryDx=0;entryDy=0;" parent="1" source="YhAX1nRg8OLiJ6K9KQkO-1" target="BTQIR7O9Z3_4OCxKt4MY-2" edge="1">
          <mxGeometry relative="1" as="geometry">
            <mxPoint x="500" y="320" as="targetPoint" />
          </mxGeometry>
        </mxCell>
        <mxCell id="YhAX1nRg8OLiJ6K9KQkO-1" value="&lt;font style=&quot;font-size: 20px;&quot;&gt;&lt;b&gt;Chức năng của Server&lt;br&gt;&lt;/b&gt;&lt;/font&gt;" style="rounded=0;whiteSpace=wrap;html=1;" parent="1" vertex="1">
          <mxGeometry x="400" y="40" width="200" height="60" as="geometry" />
        </mxCell>
        <mxCell id="LmWn8QrTKek6M5Rs8ROm-1" value="&lt;b&gt;Tạo kết nối TCP/IP với Client&lt;br&gt;&lt;/b&gt;" style="rounded=0;whiteSpace=wrap;html=1;" parent="1" vertex="1">
          <mxGeometry x="190" y="210" width="160" height="60" as="geometry" />
        </mxCell>
        <mxCell id="LmWn8QrTKek6M5Rs8ROm-3" value="&lt;b&gt;Kết nối với CSDL&lt;br&gt;&lt;/b&gt;" style="rounded=0;whiteSpace=wrap;html=1;" parent="1" vertex="1">
          <mxGeometry x="670" y="210" width="160" height="60" as="geometry" />
        </mxCell>
        <mxCell id="BTQIR7O9Z3_4OCxKt4MY-2" value="&lt;b&gt;Kết nối với Cờ Vua&lt;/b&gt;" style="rounded=0;whiteSpace=wrap;html=1;" parent="1" vertex="1">
          <mxGeometry x="390" y="330" width="220" height="110" as="geometry" />
        </mxCell>
      </root>
    </mxGraphModel>
  </diagram>
  <diagram id="D5HoMuj3uosn149JqA8Q" name="Cờ vua">
    <mxGraphModel dx="796" dy="477" grid="1" gridSize="10" guides="1" tooltips="1" connect="1" arrows="1" fold="1" page="1" pageScale="1" pageWidth="3300" pageHeight="4681" background="none" math="0" shadow="1">
      <root>
        <mxCell id="0" />
        <mxCell id="1" parent="0" />
        <mxCell id="n8C_h9uNXEAuygrnXdcH-1" value="&lt;span style=&quot;font-size: 16px;&quot;&gt;&lt;font style=&quot;font-size: 16px;&quot;&gt;Chess game&lt;/font&gt;&lt;/span&gt;" style="rounded=0;whiteSpace=wrap;html=1;fontSize=16;fontFamily=Times New Roman;fontStyle=1" parent="1" vertex="1">
          <mxGeometry x="1310" y="1100" width="80" height="140" as="geometry" />
        </mxCell>
        <mxCell id="YM0ZKSX0x_u6HVW8kFzE-19" value="" style="edgeStyle=orthogonalEdgeStyle;rounded=0;orthogonalLoop=1;jettySize=auto;html=1;fontSize=16;fontFamily=Times New Roman;fontStyle=1" parent="1" source="n8C_h9uNXEAuygrnXdcH-4" target="YM0ZKSX0x_u6HVW8kFzE-18" edge="1">
          <mxGeometry relative="1" as="geometry" />
        </mxCell>
        <mxCell id="Pa06EU07u6C9Y5kd25m7-5" style="edgeStyle=orthogonalEdgeStyle;rounded=0;orthogonalLoop=1;jettySize=auto;html=1;exitX=0;exitY=0.5;exitDx=0;exitDy=0;entryX=1;entryY=0.5;entryDx=0;entryDy=0;" edge="1" parent="1" source="n8C_h9uNXEAuygrnXdcH-4" target="Pa06EU07u6C9Y5kd25m7-4">
          <mxGeometry relative="1" as="geometry" />
        </mxCell>
        <mxCell id="n8C_h9uNXEAuygrnXdcH-4" value="Thông tin người chơi" style="rounded=0;whiteSpace=wrap;html=1;direction=south;fontSize=16;fontFamily=Times New Roman;fontStyle=1" parent="1" vertex="1">
          <mxGeometry x="2085" y="835" width="60" height="120" as="geometry" />
        </mxCell>
        <mxCell id="YM0ZKSX0x_u6HVW8kFzE-21" value="" style="edgeStyle=orthogonalEdgeStyle;rounded=0;orthogonalLoop=1;jettySize=auto;html=1;fontSize=16;fontFamily=Times New Roman;fontStyle=1" parent="1" source="n8C_h9uNXEAuygrnXdcH-5" target="YM0ZKSX0x_u6HVW8kFzE-20" edge="1">
          <mxGeometry relative="1" as="geometry" />
        </mxCell>
        <mxCell id="n8C_h9uNXEAuygrnXdcH-5" value="Xếp hạng" style="rounded=0;whiteSpace=wrap;html=1;direction=south;fontSize=16;fontFamily=Times New Roman;fontStyle=1" parent="1" vertex="1">
          <mxGeometry x="2085" y="1030" width="60" height="120" as="geometry" />
        </mxCell>
        <mxCell id="YM0ZKSX0x_u6HVW8kFzE-23" value="" style="edgeStyle=orthogonalEdgeStyle;rounded=0;orthogonalLoop=1;jettySize=auto;html=1;fontSize=16;fontFamily=Times New Roman;fontStyle=1" parent="1" source="n8C_h9uNXEAuygrnXdcH-6" target="YM0ZKSX0x_u6HVW8kFzE-22" edge="1">
          <mxGeometry relative="1" as="geometry" />
        </mxCell>
        <mxCell id="n8C_h9uNXEAuygrnXdcH-6" value="Chơi với Máy" style="rounded=0;whiteSpace=wrap;html=1;direction=south;fontSize=16;fontFamily=Times New Roman;fontStyle=1" parent="1" vertex="1">
          <mxGeometry x="2085" y="1210" width="60" height="120" as="geometry" />
        </mxCell>
        <mxCell id="ujrWsLj8YTmfWZrsK14y-4" style="edgeStyle=orthogonalEdgeStyle;rounded=0;orthogonalLoop=1;jettySize=auto;html=1;exitX=0.5;exitY=0;exitDx=0;exitDy=0;entryX=0;entryY=0.5;entryDx=0;entryDy=0;" parent="1" source="n8C_h9uNXEAuygrnXdcH-7" target="L9k_0i_xRcJFpXMrRdbP-2" edge="1">
          <mxGeometry relative="1" as="geometry" />
        </mxCell>
        <mxCell id="ujrWsLj8YTmfWZrsK14y-5" style="edgeStyle=orthogonalEdgeStyle;rounded=0;orthogonalLoop=1;jettySize=auto;html=1;exitX=0.5;exitY=0;exitDx=0;exitDy=0;entryX=0;entryY=0.5;entryDx=0;entryDy=0;" parent="1" source="n8C_h9uNXEAuygrnXdcH-7" target="ujrWsLj8YTmfWZrsK14y-1" edge="1">
          <mxGeometry relative="1" as="geometry" />
        </mxCell>
        <mxCell id="ujrWsLj8YTmfWZrsK14y-6" style="edgeStyle=orthogonalEdgeStyle;rounded=0;orthogonalLoop=1;jettySize=auto;html=1;exitX=0.5;exitY=0;exitDx=0;exitDy=0;entryX=0;entryY=0.5;entryDx=0;entryDy=0;" parent="1" source="n8C_h9uNXEAuygrnXdcH-7" target="UQFkvLpH3qj9v4HmwBqS-1" edge="1">
          <mxGeometry relative="1" as="geometry" />
        </mxCell>
        <mxCell id="n8C_h9uNXEAuygrnXdcH-7" value="Chơi với Người" style="rounded=0;whiteSpace=wrap;html=1;direction=south;fontSize=16;fontFamily=Times New Roman;fontStyle=1" parent="1" vertex="1">
          <mxGeometry x="2085" y="1400" width="55" height="120" as="geometry" />
        </mxCell>
        <mxCell id="n8C_h9uNXEAuygrnXdcH-16" value="" style="edgeStyle=segmentEdgeStyle;endArrow=classic;html=1;curved=0;rounded=0;endSize=8;startSize=8;entryX=0.5;entryY=1;entryDx=0;entryDy=0;fontSize=16;fontFamily=Times New Roman;fontStyle=1" parent="1" target="n8C_h9uNXEAuygrnXdcH-6" edge="1">
          <mxGeometry width="50" height="50" relative="1" as="geometry">
            <mxPoint x="2005" y="1190" as="sourcePoint" />
            <mxPoint x="2065" y="1270" as="targetPoint" />
            <Array as="points">
              <mxPoint x="2005" y="1270" />
            </Array>
          </mxGeometry>
        </mxCell>
        <mxCell id="n8C_h9uNXEAuygrnXdcH-17" value="" style="edgeStyle=segmentEdgeStyle;endArrow=classic;html=1;curved=0;rounded=0;endSize=8;startSize=8;entryX=0.5;entryY=1;entryDx=0;entryDy=0;fontSize=16;fontFamily=Times New Roman;fontStyle=1" parent="1" target="n8C_h9uNXEAuygrnXdcH-7" edge="1">
          <mxGeometry width="50" height="50" relative="1" as="geometry">
            <mxPoint x="2005" y="1270" as="sourcePoint" />
            <mxPoint x="2015" y="1460" as="targetPoint" />
            <Array as="points">
              <mxPoint x="2005" y="1340" />
              <mxPoint x="2005" y="1450" />
            </Array>
          </mxGeometry>
        </mxCell>
        <mxCell id="n8C_h9uNXEAuygrnXdcH-18" value="" style="edgeStyle=segmentEdgeStyle;endArrow=classic;html=1;curved=0;rounded=0;endSize=8;startSize=8;entryX=0.5;entryY=1;entryDx=0;entryDy=0;fontSize=16;fontFamily=Times New Roman;fontStyle=1" parent="1" target="n8C_h9uNXEAuygrnXdcH-4" edge="1">
          <mxGeometry width="50" height="50" relative="1" as="geometry">
            <mxPoint x="2005" y="1100" as="sourcePoint" />
            <mxPoint x="2070" y="800" as="targetPoint" />
            <Array as="points">
              <mxPoint x="2005" y="895" />
            </Array>
          </mxGeometry>
        </mxCell>
        <mxCell id="YM0ZKSX0x_u6HVW8kFzE-12" value="" style="edgeStyle=orthogonalEdgeStyle;rounded=0;orthogonalLoop=1;jettySize=auto;html=1;fontSize=16;fontFamily=Times New Roman;fontStyle=1" parent="1" source="YM0ZKSX0x_u6HVW8kFzE-1" target="YM0ZKSX0x_u6HVW8kFzE-11" edge="1">
          <mxGeometry relative="1" as="geometry" />
        </mxCell>
        <mxCell id="YM0ZKSX0x_u6HVW8kFzE-1" value="Đăng nhập" style="rounded=0;whiteSpace=wrap;html=1;direction=south;fontSize=16;fontFamily=Times New Roman;fontStyle=1" parent="1" vertex="1">
          <mxGeometry x="1500" y="1210" width="60" height="120" as="geometry" />
        </mxCell>
        <mxCell id="L9k_0i_xRcJFpXMrRdbP-10" style="edgeStyle=orthogonalEdgeStyle;rounded=0;orthogonalLoop=1;jettySize=auto;html=1;exitX=0.5;exitY=0;exitDx=0;exitDy=0;entryX=0.5;entryY=1;entryDx=0;entryDy=0;fontSize=16;fontFamily=Times New Roman;fontStyle=1" parent="1" source="YM0ZKSX0x_u6HVW8kFzE-2" target="YM0ZKSX0x_u6HVW8kFzE-5" edge="1">
          <mxGeometry relative="1" as="geometry" />
        </mxCell>
        <mxCell id="YM0ZKSX0x_u6HVW8kFzE-2" value="Đăng ký" style="rounded=0;whiteSpace=wrap;html=1;direction=south;fontSize=16;fontFamily=Times New Roman;fontStyle=1" parent="1" vertex="1">
          <mxGeometry x="1500" y="980" width="60" height="120" as="geometry" />
        </mxCell>
        <mxCell id="YM0ZKSX0x_u6HVW8kFzE-3" value="" style="endArrow=classic;html=1;rounded=0;exitX=1;exitY=0.5;exitDx=0;exitDy=0;entryX=0.5;entryY=1;entryDx=0;entryDy=0;fontSize=16;fontFamily=Times New Roman;fontStyle=1" parent="1" source="n8C_h9uNXEAuygrnXdcH-1" target="YM0ZKSX0x_u6HVW8kFzE-2" edge="1">
          <mxGeometry width="50" height="50" relative="1" as="geometry">
            <mxPoint x="1430" y="1170" as="sourcePoint" />
            <mxPoint x="1480" y="1120" as="targetPoint" />
          </mxGeometry>
        </mxCell>
        <mxCell id="YM0ZKSX0x_u6HVW8kFzE-4" value="" style="endArrow=classic;html=1;rounded=0;entryX=0.5;entryY=1;entryDx=0;entryDy=0;exitX=1;exitY=0.5;exitDx=0;exitDy=0;fontSize=16;fontFamily=Times New Roman;fontStyle=1" parent="1" source="n8C_h9uNXEAuygrnXdcH-1" target="YM0ZKSX0x_u6HVW8kFzE-1" edge="1">
          <mxGeometry width="50" height="50" relative="1" as="geometry">
            <mxPoint x="1430" y="1180" as="sourcePoint" />
            <mxPoint x="1480" y="1130" as="targetPoint" />
          </mxGeometry>
        </mxCell>
        <mxCell id="YM0ZKSX0x_u6HVW8kFzE-5" value="Tạo và lưu thông tin người chơi vào cơ sở dữ liệu" style="rounded=0;whiteSpace=wrap;html=1;direction=south;fontSize=16;fontFamily=Times New Roman;fontStyle=1" parent="1" vertex="1">
          <mxGeometry x="1630" y="950" width="60" height="180" as="geometry" />
        </mxCell>
        <mxCell id="YM0ZKSX0x_u6HVW8kFzE-14" value="" style="edgeStyle=orthogonalEdgeStyle;rounded=0;orthogonalLoop=1;jettySize=auto;html=1;fontSize=16;fontFamily=Times New Roman;fontStyle=1" parent="1" source="YM0ZKSX0x_u6HVW8kFzE-11" target="n8C_h9uNXEAuygrnXdcH-6" edge="1">
          <mxGeometry relative="1" as="geometry" />
        </mxCell>
        <mxCell id="YM0ZKSX0x_u6HVW8kFzE-11" value="&lt;font style=&quot;font-size: 16px;&quot;&gt;Main Menu&lt;/font&gt;" style="whiteSpace=wrap;html=1;rounded=0;fontSize=16;fontFamily=Times New Roman;fontStyle=1" parent="1" vertex="1">
          <mxGeometry x="1860" y="1240" width="120" height="60" as="geometry" />
        </mxCell>
        <mxCell id="YM0ZKSX0x_u6HVW8kFzE-13" value="Đăng xuất" style="rounded=0;whiteSpace=wrap;html=1;direction=south;fontSize=16;fontFamily=Times New Roman;fontStyle=1" parent="1" vertex="1">
          <mxGeometry x="2080" y="1569.17" width="60" height="120" as="geometry" />
        </mxCell>
        <mxCell id="YM0ZKSX0x_u6HVW8kFzE-16" value="" style="edgeStyle=segmentEdgeStyle;endArrow=classic;html=1;curved=0;rounded=0;endSize=8;startSize=8;entryX=0.5;entryY=1;entryDx=0;entryDy=0;fontSize=16;fontFamily=Times New Roman;fontStyle=1" parent="1" target="n8C_h9uNXEAuygrnXdcH-5" edge="1">
          <mxGeometry width="50" height="50" relative="1" as="geometry">
            <mxPoint x="2005" y="1190" as="sourcePoint" />
            <mxPoint x="2075" y="1110" as="targetPoint" />
            <Array as="points">
              <mxPoint x="2005" y="1090" />
            </Array>
          </mxGeometry>
        </mxCell>
        <mxCell id="YM0ZKSX0x_u6HVW8kFzE-17" value="" style="edgeStyle=segmentEdgeStyle;endArrow=classic;html=1;curved=0;rounded=0;endSize=8;startSize=8;entryX=0.5;entryY=1;entryDx=0;entryDy=0;fontSize=16;fontFamily=Times New Roman;fontStyle=1" parent="1" target="YM0ZKSX0x_u6HVW8kFzE-13" edge="1">
          <mxGeometry width="50" height="50" relative="1" as="geometry">
            <mxPoint x="2005" y="1450" as="sourcePoint" />
            <mxPoint x="2055" y="1540" as="targetPoint" />
            <Array as="points">
              <mxPoint x="2005" y="1629" />
            </Array>
          </mxGeometry>
        </mxCell>
        <mxCell id="YM0ZKSX0x_u6HVW8kFzE-50" style="edgeStyle=orthogonalEdgeStyle;rounded=0;orthogonalLoop=1;jettySize=auto;html=1;exitX=0.5;exitY=0;exitDx=0;exitDy=0;entryX=0;entryY=0.75;entryDx=0;entryDy=0;fontSize=16;fontFamily=Times New Roman;fontStyle=1" parent="1" source="YM0ZKSX0x_u6HVW8kFzE-18" target="YM0ZKSX0x_u6HVW8kFzE-47" edge="1">
          <mxGeometry relative="1" as="geometry" />
        </mxCell>
        <mxCell id="YM0ZKSX0x_u6HVW8kFzE-51" style="edgeStyle=orthogonalEdgeStyle;rounded=0;orthogonalLoop=1;jettySize=auto;html=1;exitX=0.5;exitY=0;exitDx=0;exitDy=0;entryX=0;entryY=0.5;entryDx=0;entryDy=0;fontSize=16;fontFamily=Times New Roman;fontStyle=1" parent="1" source="YM0ZKSX0x_u6HVW8kFzE-18" target="YM0ZKSX0x_u6HVW8kFzE-44" edge="1">
          <mxGeometry relative="1" as="geometry" />
        </mxCell>
        <mxCell id="YM0ZKSX0x_u6HVW8kFzE-52" style="edgeStyle=orthogonalEdgeStyle;rounded=0;orthogonalLoop=1;jettySize=auto;html=1;exitX=0.5;exitY=0;exitDx=0;exitDy=0;entryX=0;entryY=0.5;entryDx=0;entryDy=0;fontSize=16;fontFamily=Times New Roman;fontStyle=1" parent="1" source="YM0ZKSX0x_u6HVW8kFzE-18" target="YM0ZKSX0x_u6HVW8kFzE-45" edge="1">
          <mxGeometry relative="1" as="geometry" />
        </mxCell>
        <mxCell id="YM0ZKSX0x_u6HVW8kFzE-53" style="edgeStyle=orthogonalEdgeStyle;rounded=0;orthogonalLoop=1;jettySize=auto;html=1;exitX=0.5;exitY=0;exitDx=0;exitDy=0;entryX=0;entryY=0.5;entryDx=0;entryDy=0;fontSize=16;fontFamily=Times New Roman;fontStyle=1" parent="1" source="YM0ZKSX0x_u6HVW8kFzE-18" target="YM0ZKSX0x_u6HVW8kFzE-48" edge="1">
          <mxGeometry relative="1" as="geometry" />
        </mxCell>
        <mxCell id="YM0ZKSX0x_u6HVW8kFzE-18" value="Truy vấn các thông số của người chơi và hiển thị" style="rounded=0;whiteSpace=wrap;html=1;direction=south;fontSize=16;fontFamily=Times New Roman;fontStyle=1" parent="1" vertex="1">
          <mxGeometry x="2225" y="825" width="60" height="140" as="geometry" />
        </mxCell>
        <mxCell id="YM0ZKSX0x_u6HVW8kFzE-20" value="Xem bảng xếp hạng của các Player trong Server" style="rounded=0;whiteSpace=wrap;html=1;direction=south;fontSize=16;fontFamily=Times New Roman;fontStyle=1" parent="1" vertex="1">
          <mxGeometry x="2225" y="1015" width="55" height="150" as="geometry" />
        </mxCell>
        <mxCell id="YM0ZKSX0x_u6HVW8kFzE-34" value="" style="edgeStyle=orthogonalEdgeStyle;rounded=0;orthogonalLoop=1;jettySize=auto;html=1;fontSize=16;fontFamily=Times New Roman;fontStyle=1" parent="1" source="YM0ZKSX0x_u6HVW8kFzE-22" target="YM0ZKSX0x_u6HVW8kFzE-29" edge="1">
          <mxGeometry relative="1" as="geometry" />
        </mxCell>
        <mxCell id="YM0ZKSX0x_u6HVW8kFzE-22" value="Lựa chọn độ khó của Máy" style="rounded=0;whiteSpace=wrap;html=1;direction=south;fontSize=16;fontFamily=Times New Roman;fontStyle=1" parent="1" vertex="1">
          <mxGeometry x="2225" y="1210" width="60" height="120" as="geometry" />
        </mxCell>
        <mxCell id="YM0ZKSX0x_u6HVW8kFzE-38" value="" style="edgeStyle=orthogonalEdgeStyle;rounded=0;orthogonalLoop=1;jettySize=auto;html=1;fontSize=16;fontFamily=Times New Roman;fontStyle=1" parent="1" source="YM0ZKSX0x_u6HVW8kFzE-26" target="YM0ZKSX0x_u6HVW8kFzE-37" edge="1">
          <mxGeometry relative="1" as="geometry" />
        </mxCell>
        <mxCell id="YM0ZKSX0x_u6HVW8kFzE-26" value="Dễ" style="rounded=0;whiteSpace=wrap;html=1;direction=south;fontSize=16;fontFamily=Times New Roman;fontStyle=1" parent="1" vertex="1">
          <mxGeometry x="2455" y="1170" width="60" height="50" as="geometry" />
        </mxCell>
        <mxCell id="YM0ZKSX0x_u6HVW8kFzE-41" value="" style="edgeStyle=orthogonalEdgeStyle;rounded=0;orthogonalLoop=1;jettySize=auto;html=1;fontSize=16;fontFamily=Times New Roman;fontStyle=1" parent="1" source="YM0ZKSX0x_u6HVW8kFzE-29" target="YM0ZKSX0x_u6HVW8kFzE-40" edge="1">
          <mxGeometry relative="1" as="geometry" />
        </mxCell>
        <mxCell id="YM0ZKSX0x_u6HVW8kFzE-29" value="Trung bình" style="rounded=0;whiteSpace=wrap;html=1;direction=south;fontSize=16;fontFamily=Times New Roman;fontStyle=1" parent="1" vertex="1">
          <mxGeometry x="2455" y="1245" width="60" height="50" as="geometry" />
        </mxCell>
        <mxCell id="YM0ZKSX0x_u6HVW8kFzE-43" value="" style="edgeStyle=orthogonalEdgeStyle;rounded=0;orthogonalLoop=1;jettySize=auto;html=1;fontSize=16;fontFamily=Times New Roman;fontStyle=1" parent="1" source="YM0ZKSX0x_u6HVW8kFzE-30" target="YM0ZKSX0x_u6HVW8kFzE-42" edge="1">
          <mxGeometry relative="1" as="geometry" />
        </mxCell>
        <mxCell id="YM0ZKSX0x_u6HVW8kFzE-30" value="&lt;font style=&quot;font-size: 16px;&quot;&gt;Khó&lt;/font&gt;" style="rounded=0;whiteSpace=wrap;html=1;direction=south;fontSize=16;fontFamily=Times New Roman;fontStyle=1" parent="1" vertex="1">
          <mxGeometry x="2455" y="1320" width="60" height="50" as="geometry" />
        </mxCell>
        <mxCell id="YM0ZKSX0x_u6HVW8kFzE-35" value="" style="edgeStyle=segmentEdgeStyle;endArrow=classic;html=1;curved=0;rounded=0;endSize=8;startSize=8;entryX=0.5;entryY=1;entryDx=0;entryDy=0;fontSize=16;fontFamily=Times New Roman;fontStyle=1" parent="1" target="YM0ZKSX0x_u6HVW8kFzE-26" edge="1">
          <mxGeometry width="50" height="50" relative="1" as="geometry">
            <mxPoint x="2405" y="1270" as="sourcePoint" />
            <mxPoint x="2425" y="1170" as="targetPoint" />
            <Array as="points">
              <mxPoint x="2405" y="1220" />
              <mxPoint x="2405" y="1195" />
            </Array>
          </mxGeometry>
        </mxCell>
        <mxCell id="YM0ZKSX0x_u6HVW8kFzE-36" value="" style="edgeStyle=segmentEdgeStyle;endArrow=classic;html=1;curved=0;rounded=0;endSize=8;startSize=8;fontSize=16;fontFamily=Times New Roman;fontStyle=1" parent="1" edge="1">
          <mxGeometry width="50" height="50" relative="1" as="geometry">
            <mxPoint x="2405" y="1270" as="sourcePoint" />
            <mxPoint x="2455" y="1350" as="targetPoint" />
            <Array as="points">
              <mxPoint x="2405" y="1350" />
            </Array>
          </mxGeometry>
        </mxCell>
        <mxCell id="YM0ZKSX0x_u6HVW8kFzE-37" value="Easy AI(Di chuyển ngẫu nhiên)" style="whiteSpace=wrap;html=1;rounded=0;fontSize=16;fontFamily=Times New Roman;fontStyle=1" parent="1" vertex="1">
          <mxGeometry x="2565" y="1165" width="120" height="60" as="geometry" />
        </mxCell>
        <mxCell id="YM0ZKSX0x_u6HVW8kFzE-40" value="Medium AI(Ít ngẫu nhiên và có tính toán)" style="whiteSpace=wrap;html=1;rounded=0;fontSize=16;fontFamily=Times New Roman;fontStyle=1" parent="1" vertex="1">
          <mxGeometry x="2565" y="1240" width="120" height="60" as="geometry" />
        </mxCell>
        <mxCell id="YM0ZKSX0x_u6HVW8kFzE-42" value="&lt;font style=&quot;font-size: 16px;&quot;&gt;Dificult AI(Di chuyển có tính toán hoàn toàn)&lt;br&gt;&lt;/font&gt;" style="whiteSpace=wrap;html=1;rounded=0;fontSize=16;fontFamily=Times New Roman;fontStyle=1" parent="1" vertex="1">
          <mxGeometry x="2565" y="1315" width="120" height="60" as="geometry" />
        </mxCell>
        <mxCell id="YM0ZKSX0x_u6HVW8kFzE-44" value="Hạng cao nhất" style="shape=ext;double=1;rounded=1;whiteSpace=wrap;html=1;fontSize=16;fontFamily=Times New Roman;fontStyle=1" parent="1" vertex="1">
          <mxGeometry x="2405" y="835" width="90" height="40" as="geometry" />
        </mxCell>
        <mxCell id="YM0ZKSX0x_u6HVW8kFzE-45" value="Hạng hiện tại" style="shape=ext;double=1;rounded=1;whiteSpace=wrap;html=1;fontSize=16;fontFamily=Times New Roman;fontStyle=1" parent="1" vertex="1">
          <mxGeometry x="2405" y="905" width="90" height="40" as="geometry" />
        </mxCell>
        <mxCell id="YM0ZKSX0x_u6HVW8kFzE-47" value="Tỉ lê thắng" style="shape=ext;double=1;rounded=1;whiteSpace=wrap;html=1;fontSize=16;fontFamily=Times New Roman;fontStyle=1" parent="1" vertex="1">
          <mxGeometry x="2405" y="765" width="90" height="40" as="geometry" />
        </mxCell>
        <mxCell id="YM0ZKSX0x_u6HVW8kFzE-48" value="Số trận" style="shape=ext;double=1;rounded=1;whiteSpace=wrap;html=1;fontSize=16;fontFamily=Times New Roman;fontStyle=1" parent="1" vertex="1">
          <mxGeometry x="2405" y="975" width="90" height="40" as="geometry" />
        </mxCell>
        <mxCell id="UQFkvLpH3qj9v4HmwBqS-1" value="&lt;font style=&quot;font-size: 16px;&quot;&gt;Tương tác emoji&amp;nbsp;&lt;/font&gt;" style="shape=ext;double=1;rounded=1;whiteSpace=wrap;html=1;fontSize=16;fontFamily=Times New Roman;fontStyle=1" parent="1" vertex="1">
          <mxGeometry x="2225" y="1349.17" width="120" height="60" as="geometry" />
        </mxCell>
        <mxCell id="L9k_0i_xRcJFpXMrRdbP-2" value="&lt;font style=&quot;font-size: 16px;&quot;&gt;Tính điểm với mỗi trận thắng&lt;/font&gt;" style="shape=ext;double=1;rounded=1;whiteSpace=wrap;html=1;fontSize=16;fontFamily=Times New Roman;fontStyle=1" parent="1" vertex="1">
          <mxGeometry x="2225" y="1429.17" width="120" height="60" as="geometry" />
        </mxCell>
        <mxCell id="xx2wQ-4Avnp1IwOfuBBj-5" value="" style="edgeStyle=orthogonalEdgeStyle;rounded=0;orthogonalLoop=1;jettySize=auto;html=1;fontSize=16;fontFamily=Times New Roman;fontStyle=1" parent="1" source="L9k_0i_xRcJFpXMrRdbP-4" target="xx2wQ-4Avnp1IwOfuBBj-4" edge="1">
          <mxGeometry relative="1" as="geometry" />
        </mxCell>
        <mxCell id="L9k_0i_xRcJFpXMrRdbP-4" value="Quên mật khẩu" style="rounded=0;whiteSpace=wrap;html=1;direction=south;fontSize=16;fontFamily=Times New Roman;fontStyle=1" parent="1" vertex="1">
          <mxGeometry x="1500" y="750" width="60" height="120" as="geometry" />
        </mxCell>
        <mxCell id="L9k_0i_xRcJFpXMrRdbP-7" value="" style="endArrow=classic;html=1;rounded=0;entryX=0.5;entryY=1;entryDx=0;entryDy=0;exitX=1;exitY=0.5;exitDx=0;exitDy=0;fontSize=16;fontFamily=Times New Roman;fontStyle=1" parent="1" source="n8C_h9uNXEAuygrnXdcH-1" target="L9k_0i_xRcJFpXMrRdbP-4" edge="1">
          <mxGeometry width="50" height="50" relative="1" as="geometry">
            <mxPoint x="1420" y="900" as="sourcePoint" />
            <mxPoint x="1470" y="850" as="targetPoint" />
          </mxGeometry>
        </mxCell>
        <mxCell id="_FCYl7ESxmwkOZ5TWuLh-8" style="edgeStyle=orthogonalEdgeStyle;rounded=0;orthogonalLoop=1;jettySize=auto;html=1;exitX=0.5;exitY=0;exitDx=0;exitDy=0;entryX=0.5;entryY=1;entryDx=0;entryDy=0;" parent="1" source="xx2wQ-4Avnp1IwOfuBBj-4" target="_FCYl7ESxmwkOZ5TWuLh-6" edge="1">
          <mxGeometry relative="1" as="geometry" />
        </mxCell>
        <mxCell id="xx2wQ-4Avnp1IwOfuBBj-4" value="Delete mật khẩu trong SQL" style="rounded=0;whiteSpace=wrap;html=1;direction=south;fontSize=16;fontFamily=Times New Roman;fontStyle=1" parent="1" vertex="1">
          <mxGeometry x="1640" y="750" width="60" height="120" as="geometry" />
        </mxCell>
        <mxCell id="ujrWsLj8YTmfWZrsK14y-1" value="Đầu hàng" style="shape=ext;double=1;rounded=1;whiteSpace=wrap;html=1;fontSize=16;fontFamily=Times New Roman;fontStyle=1" parent="1" vertex="1">
          <mxGeometry x="2225" y="1509.17" width="120" height="60" as="geometry" />
        </mxCell>
        <mxCell id="ujrWsLj8YTmfWZrsK14y-3" style="edgeStyle=orthogonalEdgeStyle;rounded=0;orthogonalLoop=1;jettySize=auto;html=1;exitX=0.5;exitY=1;exitDx=0;exitDy=0;" parent="1" source="ujrWsLj8YTmfWZrsK14y-1" target="ujrWsLj8YTmfWZrsK14y-1" edge="1">
          <mxGeometry relative="1" as="geometry" />
        </mxCell>
        <mxCell id="_FCYl7ESxmwkOZ5TWuLh-5" style="edgeStyle=orthogonalEdgeStyle;rounded=0;orthogonalLoop=1;jettySize=auto;html=1;exitX=0.5;exitY=0;exitDx=0;exitDy=0;entryX=0.5;entryY=1;entryDx=0;entryDy=0;" parent="1" source="_FCYl7ESxmwkOZ5TWuLh-6" target="_FCYl7ESxmwkOZ5TWuLh-7" edge="1">
          <mxGeometry relative="1" as="geometry" />
        </mxCell>
        <mxCell id="_FCYl7ESxmwkOZ5TWuLh-6" value="Đổi mật khẩu" style="rounded=0;whiteSpace=wrap;html=1;direction=south;fontSize=16;fontFamily=Times New Roman;fontStyle=1" parent="1" vertex="1">
          <mxGeometry x="1780" y="750" width="60" height="120" as="geometry" />
        </mxCell>
        <mxCell id="_FCYl7ESxmwkOZ5TWuLh-7" value="Update thông tin trong SQL" style="rounded=0;whiteSpace=wrap;html=1;direction=south;fontSize=16;fontFamily=Times New Roman;fontStyle=1" parent="1" vertex="1">
          <mxGeometry x="1920" y="750" width="60" height="120" as="geometry" />
        </mxCell>
        <mxCell id="_FCYl7ESxmwkOZ5TWuLh-9" style="edgeStyle=orthogonalEdgeStyle;rounded=0;orthogonalLoop=1;jettySize=auto;html=1;exitX=0.5;exitY=0;exitDx=0;exitDy=0;entryX=0.5;entryY=1;entryDx=0;entryDy=0;" parent="1" source="_FCYl7ESxmwkOZ5TWuLh-10" target="_FCYl7ESxmwkOZ5TWuLh-11" edge="1">
          <mxGeometry relative="1" as="geometry" />
        </mxCell>
        <mxCell id="_FCYl7ESxmwkOZ5TWuLh-10" value="Đổi tên tài khoản" style="rounded=0;whiteSpace=wrap;html=1;direction=south;fontSize=16;fontFamily=Times New Roman;fontStyle=1" parent="1" vertex="1">
          <mxGeometry x="2345" y="360" width="60" height="120" as="geometry" />
        </mxCell>
        <mxCell id="_FCYl7ESxmwkOZ5TWuLh-11" value="Update tên trong SQL" style="rounded=0;whiteSpace=wrap;html=1;direction=south;fontSize=16;fontFamily=Times New Roman;fontStyle=1" parent="1" vertex="1">
          <mxGeometry x="2535" y="360" width="60" height="120" as="geometry" />
        </mxCell>
        <mxCell id="Pa06EU07u6C9Y5kd25m7-1" style="edgeStyle=orthogonalEdgeStyle;rounded=0;orthogonalLoop=1;jettySize=auto;html=1;exitX=0.5;exitY=0;exitDx=0;exitDy=0;entryX=0.5;entryY=1;entryDx=0;entryDy=0;" edge="1" parent="1">
          <mxGeometry relative="1" as="geometry">
            <mxPoint x="2405" y="620" as="sourcePoint" />
            <mxPoint x="2535" y="620" as="targetPoint" />
          </mxGeometry>
        </mxCell>
        <mxCell id="Pa06EU07u6C9Y5kd25m7-2" value="Đổi mật khẩu" style="rounded=0;whiteSpace=wrap;html=1;direction=south;fontSize=16;fontFamily=Times New Roman;fontStyle=1" vertex="1" parent="1">
          <mxGeometry x="2345" y="560" width="60" height="120" as="geometry" />
        </mxCell>
        <mxCell id="Pa06EU07u6C9Y5kd25m7-3" value="Update thông tin trong SQL" style="rounded=0;whiteSpace=wrap;html=1;direction=south;fontSize=16;fontFamily=Times New Roman;fontStyle=1" vertex="1" parent="1">
          <mxGeometry x="2535" y="560" width="60" height="120" as="geometry" />
        </mxCell>
        <mxCell id="Pa06EU07u6C9Y5kd25m7-6" style="edgeStyle=orthogonalEdgeStyle;rounded=0;orthogonalLoop=1;jettySize=auto;html=1;exitX=0.5;exitY=0;exitDx=0;exitDy=0;entryX=0.567;entryY=1.017;entryDx=0;entryDy=0;entryPerimeter=0;" edge="1" parent="1" source="Pa06EU07u6C9Y5kd25m7-4" target="_FCYl7ESxmwkOZ5TWuLh-10">
          <mxGeometry relative="1" as="geometry">
            <Array as="points">
              <mxPoint x="2250" y="550" />
              <mxPoint x="2250" y="428" />
            </Array>
          </mxGeometry>
        </mxCell>
        <mxCell id="Pa06EU07u6C9Y5kd25m7-8" style="edgeStyle=orthogonalEdgeStyle;rounded=0;orthogonalLoop=1;jettySize=auto;html=1;exitX=0.5;exitY=0;exitDx=0;exitDy=0;entryX=0.5;entryY=1;entryDx=0;entryDy=0;" edge="1" parent="1" source="Pa06EU07u6C9Y5kd25m7-4" target="Pa06EU07u6C9Y5kd25m7-2">
          <mxGeometry relative="1" as="geometry">
            <Array as="points">
              <mxPoint x="2250" y="550" />
              <mxPoint x="2250" y="620" />
            </Array>
          </mxGeometry>
        </mxCell>
        <mxCell id="Pa06EU07u6C9Y5kd25m7-4" value="Thay đổi thông tin tài khoản" style="rounded=0;whiteSpace=wrap;html=1;direction=south;fontSize=16;fontFamily=Times New Roman;fontStyle=1" vertex="1" parent="1">
          <mxGeometry x="2085" y="490" width="60" height="120" as="geometry" />
        </mxCell>
      </root>
    </mxGraphModel>
  </diagram>
  <diagram id="wb5qWrqEcB_lKVCGaq1q" name="SQL">
    <mxGraphModel dx="1393" dy="835" grid="1" gridSize="10" guides="1" tooltips="1" connect="1" arrows="1" fold="1" page="1" pageScale="1" pageWidth="3300" pageHeight="4681" math="0" shadow="0">
      <root>
        <mxCell id="0" />
        <mxCell id="1" parent="0" />
        <mxCell id="gYPvQo3EYCxRFTvaaQbw-11" style="edgeStyle=orthogonalEdgeStyle;rounded=0;orthogonalLoop=1;jettySize=auto;html=1;exitX=0.5;exitY=1;exitDx=0;exitDy=0;" parent="1" source="VayMajsh7xLs3XTXoHy7-1" target="gYPvQo3EYCxRFTvaaQbw-2" edge="1">
          <mxGeometry relative="1" as="geometry" />
        </mxCell>
        <mxCell id="VayMajsh7xLs3XTXoHy7-1" value="&lt;font style=&quot;font-size: 16px;&quot;&gt;&lt;b style=&quot;font-size: 16px;&quot;&gt;Chức năng của CSDL&lt;br style=&quot;font-size: 16px;&quot;&gt;&lt;/b&gt;&lt;/font&gt;" style="rounded=0;whiteSpace=wrap;html=1;fontSize=16;" parent="1" vertex="1">
          <mxGeometry x="1660" y="70" width="200" height="60" as="geometry" />
        </mxCell>
        <mxCell id="gYPvQo3EYCxRFTvaaQbw-1" value="&lt;font style=&quot;font-size: 16px;&quot;&gt;Cập nhật&lt;/font&gt;" style="rounded=1;whiteSpace=wrap;html=1;fontSize=16;fontStyle=1" parent="1" vertex="1">
          <mxGeometry x="1330" y="250" width="120" height="60" as="geometry" />
        </mxCell>
        <mxCell id="gYPvQo3EYCxRFTvaaQbw-15" style="edgeStyle=orthogonalEdgeStyle;rounded=0;orthogonalLoop=1;jettySize=auto;html=1;exitX=0.5;exitY=1;exitDx=0;exitDy=0;" parent="1" source="gYPvQo3EYCxRFTvaaQbw-2" edge="1">
          <mxGeometry relative="1" as="geometry">
            <mxPoint x="1760.105263157895" y="450" as="targetPoint" />
          </mxGeometry>
        </mxCell>
        <mxCell id="gYPvQo3EYCxRFTvaaQbw-2" value="&lt;font style=&quot;font-size: 16px;&quot;&gt;Thêm&lt;/font&gt;" style="rounded=1;whiteSpace=wrap;html=1;fontStyle=1;fontSize=16;" parent="1" vertex="1">
          <mxGeometry x="1700" y="250" width="120" height="60" as="geometry" />
        </mxCell>
        <mxCell id="gYPvQo3EYCxRFTvaaQbw-3" value="&lt;font style=&quot;font-size: 16px;&quot;&gt;Xóa&lt;/font&gt;" style="rounded=1;whiteSpace=wrap;html=1;fontStyle=1;fontSize=16;" parent="1" vertex="1">
          <mxGeometry x="2070" y="250" width="120" height="60" as="geometry" />
        </mxCell>
        <mxCell id="gYPvQo3EYCxRFTvaaQbw-6" value="" style="swimlane;startSize=0;" parent="1" vertex="1">
          <mxGeometry x="980" y="450" width="1570" height="120" as="geometry">
            <mxRectangle x="465" y="900" width="50" height="40" as="alternateBounds" />
          </mxGeometry>
        </mxCell>
        <mxCell id="VayMajsh7xLs3XTXoHy7-2" value="Tên người chơi" style="rounded=0;whiteSpace=wrap;html=1;fontStyle=1;fontSize=16;" parent="gYPvQo3EYCxRFTvaaQbw-6" vertex="1">
          <mxGeometry x="50" y="30" width="120" height="60" as="geometry" />
        </mxCell>
        <mxCell id="VayMajsh7xLs3XTXoHy7-3" value="Mật khẩu" style="rounded=0;whiteSpace=wrap;html=1;labelBackgroundColor=default;fontSize=16;fontStyle=1" parent="gYPvQo3EYCxRFTvaaQbw-6" vertex="1">
          <mxGeometry x="250" y="30" width="120" height="60" as="geometry" />
        </mxCell>
        <mxCell id="VayMajsh7xLs3XTXoHy7-4" value="Địa chỉ Email" style="rounded=0;whiteSpace=wrap;html=1;labelBackgroundColor=default;fontSize=16;fontStyle=1" parent="gYPvQo3EYCxRFTvaaQbw-6" vertex="1">
          <mxGeometry x="440" y="30" width="120" height="60" as="geometry" />
        </mxCell>
        <mxCell id="VayMajsh7xLs3XTXoHy7-5" value="Điểm" style="rounded=0;whiteSpace=wrap;html=1;labelBackgroundColor=default;fontSize=16;fontStyle=1" parent="gYPvQo3EYCxRFTvaaQbw-6" vertex="1">
          <mxGeometry x="630" y="30" width="120" height="60" as="geometry" />
        </mxCell>
        <mxCell id="VayMajsh7xLs3XTXoHy7-6" value="Hạng cao nhất" style="rounded=0;whiteSpace=wrap;html=1;labelBackgroundColor=default;fontSize=16;fontStyle=1" parent="gYPvQo3EYCxRFTvaaQbw-6" vertex="1">
          <mxGeometry x="820" y="30" width="120" height="60" as="geometry" />
        </mxCell>
        <mxCell id="VayMajsh7xLs3XTXoHy7-7" value="Hạng hiện tại" style="rounded=0;whiteSpace=wrap;html=1;labelBackgroundColor=default;fontStyle=1;fontSize=16;" parent="gYPvQo3EYCxRFTvaaQbw-6" vertex="1">
          <mxGeometry x="1010" y="30" width="120" height="60" as="geometry" />
        </mxCell>
        <mxCell id="VayMajsh7xLs3XTXoHy7-8" value="Tỉ lệ thắng" style="rounded=0;whiteSpace=wrap;html=1;labelBackgroundColor=default;fontSize=16;fontStyle=1" parent="gYPvQo3EYCxRFTvaaQbw-6" vertex="1">
          <mxGeometry x="1200" y="30" width="120" height="60" as="geometry" />
        </mxCell>
        <mxCell id="gzxOVB7srEKGdKZmNlvf-1" value="Số trận" style="rounded=0;whiteSpace=wrap;html=1;labelBackgroundColor=default;fontSize=16;fontStyle=1" parent="gYPvQo3EYCxRFTvaaQbw-6" vertex="1">
          <mxGeometry x="1390" y="30" width="120" height="60" as="geometry" />
        </mxCell>
        <mxCell id="gYPvQo3EYCxRFTvaaQbw-10" value="" style="endArrow=classic;html=1;rounded=0;entryX=0.5;entryY=0;entryDx=0;entryDy=0;" parent="1" target="gYPvQo3EYCxRFTvaaQbw-1" edge="1">
          <mxGeometry width="50" height="50" relative="1" as="geometry">
            <mxPoint x="1760" y="130" as="sourcePoint" />
            <mxPoint x="1560" y="130" as="targetPoint" />
          </mxGeometry>
        </mxCell>
        <mxCell id="gYPvQo3EYCxRFTvaaQbw-13" value="" style="endArrow=classic;html=1;rounded=0;entryX=0.5;entryY=0;entryDx=0;entryDy=0;exitX=0.5;exitY=1;exitDx=0;exitDy=0;" parent="1" source="VayMajsh7xLs3XTXoHy7-1" target="gYPvQo3EYCxRFTvaaQbw-3" edge="1">
          <mxGeometry width="50" height="50" relative="1" as="geometry">
            <mxPoint x="2040" y="150" as="sourcePoint" />
            <mxPoint x="2090" y="100" as="targetPoint" />
          </mxGeometry>
        </mxCell>
        <mxCell id="gYPvQo3EYCxRFTvaaQbw-14" value="" style="endArrow=classic;html=1;rounded=0;entryX=0.5;entryY=0;entryDx=0;entryDy=0;exitX=0.5;exitY=1;exitDx=0;exitDy=0;" parent="1" source="gYPvQo3EYCxRFTvaaQbw-1" target="gYPvQo3EYCxRFTvaaQbw-6" edge="1">
          <mxGeometry width="50" height="50" relative="1" as="geometry">
            <mxPoint x="1490" y="350" as="sourcePoint" />
            <mxPoint x="1540" y="300" as="targetPoint" />
          </mxGeometry>
        </mxCell>
        <mxCell id="gYPvQo3EYCxRFTvaaQbw-16" value="" style="endArrow=classic;html=1;rounded=0;exitX=0.5;exitY=1;exitDx=0;exitDy=0;" parent="1" source="gYPvQo3EYCxRFTvaaQbw-3" edge="1">
          <mxGeometry width="50" height="50" relative="1" as="geometry">
            <mxPoint x="1970" y="360" as="sourcePoint" />
            <mxPoint x="1760" y="450" as="targetPoint" />
          </mxGeometry>
        </mxCell>
      </root>
    </mxGraphModel>
  </diagram>
</mxfile>
